HIERARCHY
ROOT Hips
{
	OFFSET 0.000000 0.000000 0.000000
	CHANNELS 6 Xposition Yposition Zposition Xrotation Yrotation Zrotation
	JOINT LeftUpLeg_virtual
	{
		OFFSET 0.000000 0.000000 0.000000
		CHANNELS 3 Xrotation Yrotation Zrotation
		JOINT LeftUpLeg
		{
			OFFSET 11.394100 -6.187798 -0.413800
			CHANNELS 3 Xrotation Yrotation Zrotation
			JOINT LeftLeg
			{
				OFFSET 0.430247 -32.302673 3.732800
				CHANNELS 3 Xrotation Yrotation Zrotation
				JOINT LeftFoot
				{
					OFFSET -0.430247 -48.264931 -6.423300
					CHANNELS 3 Xrotation Yrotation Zrotation
					JOINT LeftToeBase
					{
						OFFSET 4.230900 -16.068199 23.438400
						CHANNELS 3 Xrotation Yrotation Zrotation
						JOINT LeftToe_End
						{
							OFFSET 4.510700 0.695400 19.974600
							CHANNELS 3 Xrotation Yrotation Zrotation
							End Site
							{
								OFFSET 0 0 0
							}
						}
					}
				}
			}
		}
	}
	JOINT RightUpLeg_virtual
	{
		OFFSET 0.000000 0.000000 0.000000
		CHANNELS 3 Xrotation Yrotation Zrotation
		JOINT RightUpLeg
		{
			OFFSET -11.333700 -6.187798 -0.413800
			CHANNELS 3 Xrotation Yrotation Zrotation
			JOINT RightLeg
			{
				OFFSET -0.430392 -32.302628 3.733000
				CHANNELS 3 Xrotation Yrotation Zrotation
				JOINT RightFoot
				{
					OFFSET 0.430392 -48.264973 -6.423500
					CHANNELS 3 Xrotation Yrotation Zrotation
					JOINT RightToeBase
					{
						OFFSET -4.230900 -16.068199 23.438400
						CHANNELS 3 Xrotation Yrotation Zrotation
						JOINT RightToe_End
						{
							OFFSET -4.510700 0.695400 19.974600
							CHANNELS 3 Xrotation Yrotation Zrotation
							End Site
							{
								OFFSET 0 0 0
							}
						}
					}
				}
			}
		}
	}
	JOINT Spine_virtual
	{
		OFFSET 0.000000 0.000000 0.000000
		CHANNELS 3 Xrotation Yrotation Zrotation
		JOINT Spine
		{
			OFFSET -0.002400 12.777504 0.315300
			CHANNELS 3 Xrotation Yrotation Zrotation
			JOINT Spine1
			{
				OFFSET -0.002067 5.816869 0.032633
				CHANNELS 3 Xrotation Yrotation Zrotation
				JOINT Spine1_split
				{
					OFFSET -0.002067 5.816869 0.032633
					CHANNELS 3 Xrotation Yrotation Zrotation
					JOINT Spine2
					{
						OFFSET -0.002067 5.816869 0.032633
						CHANNELS 3 Xrotation Yrotation Zrotation
						JOINT Neck_virtual
						{
							OFFSET 0.000000 0.000000 0.000000
							CHANNELS 3 Xrotation Yrotation Zrotation
							JOINT Neck
							{
								OFFSET -0.003700 21.199493 -0.826900
								CHANNELS 3 Xrotation Yrotation Zrotation
								JOINT Head
								{
									OFFSET 0.000000 20.442200 4.834800
									CHANNELS 3 Xrotation Yrotation Zrotation
									JOINT HeadTop_End
									{
										OFFSET 0.000000 34.668396 4.968400
										CHANNELS 3 Xrotation Yrotation Zrotation
										End Site
										{
											OFFSET 0 0 0
										}
									}
								}
							}
						}
						JOINT LeftShoulder_virtual
						{
							OFFSET 0.000000 0.000000 0.000000
							CHANNELS 3 Xrotation Yrotation Zrotation
							JOINT LeftShoulder
							{
								OFFSET 3.288150 8.794197 -1.372250
								CHANNELS 3 Xrotation Yrotation Zrotation
								JOINT LeftShoulder_split
								{
									OFFSET 3.288150 8.794197 -1.372250
									CHANNELS 3 Xrotation Yrotation Zrotation
									JOINT LeftArm
									{
										OFFSET 11.953299 -2.279007 -0.146200
										CHANNELS 3 Xrotation Yrotation Zrotation
										JOINT LeftForeArm
										{
											OFFSET 18.448900 0.000000 0.000000
											CHANNELS 3 Xrotation Yrotation Zrotation
											JOINT LeftHand
											{
												OFFSET 29.527798 0.000000 0.000000
												CHANNELS 3 Xrotation Yrotation Zrotation
												End Site
												{
													OFFSET 0 0 0
												}
											}
										}
									}
								}
							}
						}
						JOINT RightShoulder_virtual
						{
							OFFSET 0.000000 0.000000 0.000000
							CHANNELS 3 Xrotation Yrotation Zrotation
							JOINT RightShoulder
							{
								OFFSET -3.249400 8.794197 -1.372250
								CHANNELS 3 Xrotation Yrotation Zrotation
								JOINT RightShoulder_split
								{
									OFFSET -3.249400 8.794197 -1.372250
									CHANNELS 3 Xrotation Yrotation Zrotation
									JOINT RightArm
									{
										OFFSET -11.953299 -2.279007 -0.146200
										CHANNELS 3 Xrotation Yrotation Zrotation
										JOINT RightForeArm
										{
											OFFSET -18.448900 0.000000 0.000000
											CHANNELS 3 Xrotation Yrotation Zrotation
											JOINT RightHand
											{
												OFFSET -29.527802 0.000000 0.000000
												CHANNELS 3 Xrotation Yrotation Zrotation
												End Site
												{
													OFFSET 0 0 0
												}
											}
										}
									}
								}
							}
						}
					}
				}
			}
		}
	}
}
MOTION
Frames: 4
Frame Time: 0.03333333
3.688797 91.323334 117.878189 0.000000 0.000000 0.000000 4.283790 -2.821024 -3.540327 -52.588901 1.649498 10.176435 35.577721 -2.070054 2.324467 3.431098 -12.112342 -2.924525 2.980906 -2.829592 -1.519482 0.000000 0.000000 0.000000 4.722853 0.850544 -3.320875 -24.531324 1.172901 8.213145 42.019416 1.561053 -1.674467 -20.623947 -1.765495 -2.278011 2.562477 0.376145 -1.243685 0.000000 0.000000 0.000000 2.247174 0.910539 -2.576924 17.227337 2.920846 -0.036691 18.923516 6.862422 3.820795 0.946409 -3.911205 1.849286 0.000000 0.000000 0.000000 17.772878 7.869324 2.840771 -46.877709 20.803663 -27.581907 39.694792 -40.044832 40.760148 0.000000 0.000000 0.000000 19.551053 7.190443 3.427402 -2.182794 -12.567367 -7.283243 -4.241130 3.973010 -6.044740 -11.647059 -1.367874 -57.790791 -1.355380 -68.979856 -3.652007 0.000000 0.000000 0.000000 18.216731 8.087758 3.480479 0.026769 19.450642 6.707464 -2.471446 4.849179 8.875942 -56.474521 6.422942 31.743755 -170.287094 81.526381 169.674890 0.000000 0.000000 0.000000 
3.299377 91.564430 116.284271 0.000000 0.000000 0.000000 2.225001 -2.631284 -4.220727 -50.406895 0.834501 11.412648 34.956946 0.923467 2.484328 0.255224 -9.672935 -4.071393 1.117492 -3.036725 -0.693650 0.000000 0.000000 0.000000 2.905359 0.570473 -3.945630 -24.323437 0.782263 8.826081 41.796690 1.981514 -1.527664 -18.885149 -1.801384 -2.673370 2.404449 0.308568 -1.118962 0.000000 0.000000 0.000000 0.248434 0.972081 -3.509659 17.128207 2.813167 0.345194 18.139616 6.560375 3.817987 0.903230 -4.075017 1.697205 0.000000 0.000000 0.000000 16.945679 7.658550 2.809634 -47.422639 19.537828 -26.773394 40.225477 -38.487955 40.247989 0.000000 0.000000 0.000000 18.759193 6.920317 3.412284 -1.733931 -11.570801 -6.768436 -4.128405 4.080905 -5.949683 -14.125093 -1.352735 -59.716125 -0.081772 -63.213995 -2.598721 0.000000 0.000000 0.000000 17.416275 7.822545 3.513112 -0.046423 17.215622 8.473174 -1.934273 4.628032 8.556113 -59.577643 7.740846 30.922636 -169.721663 82.149991 169.292509 0.000000 0.000000 0.000000 
2.929017 91.684219 114.772934 0.000000 0.000000 0.000000 0.337870 -2.455787 -4.677140 -48.544531 0.155875 12.541113 35.763591 2.933920 2.689682 -1.981483 -8.049344 -6.065989 -1.227842 -3.271004 0.843255 0.000000 0.000000 0.000000 1.235103 0.412733 -4.366659 -24.304666 0.889249 9.367762 42.296295 2.526218 -1.583214 -17.422674 -2.026914 -2.882560 1.920637 0.150877 -0.929447 0.000000 0.000000 0.000000 -1.624492 1.230871 -4.253562 16.987070 2.710181 0.758686 17.393206 6.123510 3.736300 0.836717 -4.469077 1.497404 0.000000 0.000000 0.000000 16.171004 7.281076 2.737912 -47.872086 18.083870 -25.744591 40.277868 -37.026100 39.025273 0.000000 0.000000 0.000000 18.033573 6.513317 3.323781 -1.265299 -10.606034 -6.348169 -4.076742 4.226764 -5.779544 -16.563496 -0.959955 -61.270007 0.892138 -57.691589 -1.830725 0.000000 0.000000 0.000000 16.738649 7.404438 3.445397 -0.007845 14.976155 10.192985 -1.502895 4.518483 8.372855 -63.942769 8.469128 30.285680 -169.917635 82.415248 169.641381 0.000000 0.000000 0.000000 
2.605786 91.728523 113.332977 0.000000 0.000000 0.000000 -1.256210 -2.243061 -4.992692 -46.752655 -0.301974 13.462750 38.264772 4.409296 2.701185 -3.694625 -6.931071 -8.032193 -3.162103 -3.492070 2.412200 0.000000 0.000000 0.000000 -0.275136 0.294434 -4.695435 -24.481421 1.227545 9.887840 43.337461 3.203813 -1.774056 -16.340913 -2.314087 -2.825829 1.142020 -0.045162 -0.719245 0.000000 0.000000 0.000000 -3.213753 1.692246 -4.853419 16.748414 2.608778 1.242557 16.644292 5.552000 3.585276 0.629788 -4.747656 1.318810 0.000000 0.000000 0.000000 15.420470 6.738875 2.619212 -48.086509 16.430734 -24.544939 39.936116 -35.723406 37.276533 0.000000 0.000000 0.000000 17.320858 5.972676 3.182813 -0.796292 -9.683780 -6.014983 -3.997395 4.363979 -5.586397 -18.446227 -0.200859 -62.399174 1.609929 -53.171612 -1.295050 0.000000 0.000000 0.000000 16.120735 6.826405 3.286948 0.153474 12.762050 11.604132 -1.052146 4.476660 8.239898 -69.356801 8.442148 29.869486 -171.478238 81.716199 171.310734 0.000000 0.000000 0.000000 
